<svg width="490" height="151" viewBox="0 0 490 151" fill="none" xmlns="http://www.w3.org/2000/svg">
<path d="M1.37976 148.478C-0.687534 148.131 -0.53534 142.728 2.54235 142.081C15.1321 139.443 15.2378 135.156 18.6875 125.387C24.251 109.635 29.544 89.7395 33.26 73.3406C35.1329 65.0799 38.646 49.962 36.1982 48.0934C33.7504 46.2248 29.2819 46.6222 28.2334 45.7006C27.1808 44.779 28.356 38.7124 31.9114 38.6025C47.7734 38.129 66.3113 37.3807 82.1733 37.1017C88.3033 36.996 94.5178 37.5498 100.576 38.5137C108.693 39.8074 115.267 43.98 116.92 52.5113C118.619 61.2793 116.721 69.3244 109.522 75.6447C96.5936 86.9915 87.741 86.9535 84.8324 87.8751C88.7937 89.304 91.2161 90.065 93.5539 91.0331C106.321 96.3176 112.722 108.603 107.353 121.358C97.9168 143.777 81.8773 147.67 78.4445 148.499C63.4028 151.775 3.4386 148.82 1.3713 148.469L1.37976 148.478ZM45.0423 142.978C47.1815 144.673 55.755 144.394 58.9807 143.789C80.5076 139.748 90.2522 104.849 77.0367 95.6412C71.2534 91.6123 57.6363 91.6884 54.7785 95.7215C51.9248 99.7546 39.7325 138.771 45.0423 142.978ZM57.7927 85.8966C76.3561 89.2575 93.9429 70.6265 92.1715 56.908C91.1484 48.9939 80.4949 44.1533 71.7988 46.6476C66.0323 48.3851 55.4422 85.6725 57.7927 85.8966Z" fill="white"/>
<path d="M172.352 107.626C180.972 89.0286 197.798 79.098 216.945 81.3133C230.752 82.9113 239.249 91.6413 238.615 105.525C237.537 129.034 219.337 150.866 192.327 150.866C165.317 150.866 163.973 125.707 172.352 107.626ZM193.431 142.778C201.916 142.778 209.859 125.331 213.491 114.132C216.391 105.191 221.012 86.8937 212.899 86.8937C204.786 86.8937 196.897 101.695 193.177 113.811C189.994 124.177 184.942 142.782 193.427 142.782L193.431 142.778Z" fill="white"/>
<path d="M122.707 148.507C118.678 144.423 120.34 139.574 121.38 135.144C123.536 125.961 132.832 100.57 130.524 100.57C128.216 100.57 121.114 109.444 118.848 109.313C116.582 109.182 116.121 105.901 118.019 103.669C128.313 91.5741 147.536 81.449 158.189 85.0383C164.011 86.9999 144.539 132.282 147.675 133.436C151.21 134.734 160.172 121.662 163.567 122.106C166.019 122.427 165.419 124.921 164.675 126.38C160.688 134.192 149.405 144.233 142.437 148C137.576 150.629 128.161 152.933 122.703 148.511L122.707 148.507Z" fill="white"/>
<path d="M142.708 74.1098C134.972 66.1535 149.713 48.9514 161.825 49.4165C167.034 49.6152 170.111 52.6168 170.162 57.5546C170.297 69.9076 150.445 82.0704 142.704 74.1141L142.708 74.1098Z" fill="white"/>
<path d="M252.731 148.478C250.664 148.131 250.816 142.728 253.894 142.081C266.484 139.443 266.589 135.156 270.039 125.387C275.602 109.635 280.895 89.7395 284.611 73.3406C286.484 65.0799 289.997 49.962 287.55 48.0934C285.102 46.2248 280.633 46.6222 279.585 45.7006C278.532 44.779 279.707 38.7124 283.263 38.6025C299.125 38.129 317.663 37.3807 333.525 37.1017C339.655 36.996 345.869 37.5498 351.927 38.5137C360.044 39.8074 366.618 43.98 368.271 52.5113C369.971 61.2793 368.073 69.3244 360.873 75.6447C347.945 86.9915 339.092 86.9535 336.184 87.8751C340.145 89.304 342.568 90.065 344.905 91.0331C357.673 96.3176 364.073 108.603 358.704 121.358C349.268 143.777 333.229 147.67 329.796 148.499C314.754 151.775 254.79 148.82 252.723 148.469L252.731 148.478ZM296.394 142.978C298.533 144.673 307.106 144.394 310.332 143.789C331.859 139.748 341.604 104.849 328.388 95.6412C322.605 91.6123 308.988 91.6884 306.13 95.7215C303.276 99.7546 291.084 138.771 296.394 142.978ZM309.144 85.8966C327.708 89.2575 345.294 70.6265 343.523 56.908C342.5 48.9939 331.846 44.1533 323.15 46.6476C317.384 48.3851 306.794 85.6725 309.144 85.8966Z" fill="white"/>
<path d="M423.703 107.626C432.323 89.0286 449.149 79.098 468.296 81.3133C482.103 82.9113 490.601 91.6413 489.967 105.525C488.889 129.034 470.689 150.866 443.679 150.866C416.669 150.866 415.324 125.707 423.703 107.626ZM444.782 142.778C453.267 142.778 461.211 125.331 464.842 114.132C467.742 105.191 472.363 86.8937 464.25 86.8937C456.138 86.8937 448.249 101.695 444.529 113.811C441.345 124.177 436.293 142.782 444.778 142.782L444.782 142.778Z" fill="white"/>
<path d="M374.054 148.507C370.026 144.423 371.687 139.574 372.727 135.144C374.883 125.961 384.18 100.57 381.871 100.57C379.563 100.57 372.461 109.444 370.195 109.313C367.929 109.182 367.468 105.901 369.366 103.669C379.66 91.5741 398.883 81.449 409.537 85.0383C415.358 86.9999 395.886 132.282 399.023 133.436C402.557 134.734 411.519 121.662 414.914 122.106C417.366 122.427 416.766 124.921 416.022 126.38C412.035 134.192 400.752 144.233 393.785 148C388.923 150.629 379.508 152.933 374.05 148.511L374.054 148.507Z" fill="white"/>
<path d="M394.055 74.1098C386.319 66.1535 401.061 48.9514 413.173 49.4165C418.381 49.6152 421.459 52.6168 421.509 57.5546C421.645 69.9076 401.792 82.0704 394.051 74.1141L394.055 74.1098Z" fill="white"/>
<path d="M52.8634 0.943138C51.798 0.681027 50.0985 0.554199 47.6719 0.554199H36.6844L36.2574 2.13532L36.7985 2.15646C38.3881 2.21987 38.925 2.46084 39.1025 2.60035C39.39 2.82442 39.5211 3.0823 39.5211 3.41205C39.5211 3.7714 39.3985 4.6296 38.8024 6.67153L33.9914 23.2479C33.5306 24.8375 33.222 25.4801 33.0444 25.738C32.8034 26.0889 32.4948 26.3425 32.1017 26.5074C31.6873 26.6807 30.9602 26.7695 29.9329 26.7695H29.6243L29.062 28.3718H40.8824C45.1776 28.3718 48.065 28.0589 49.7053 27.4163C51.3541 26.7737 52.6943 25.738 53.6962 24.3429C54.6981 22.9435 55.2097 21.4977 55.2097 20.0434C55.2097 18.4834 54.6854 17.101 53.6497 15.9215C52.8253 14.9872 51.5401 14.2051 49.7349 13.5583C51.4302 13.1059 52.7534 12.6197 53.6835 12.104C54.9053 11.4276 55.8396 10.5482 56.461 9.49133C57.0783 8.43443 57.3953 7.37753 57.3953 6.35023C57.3953 5.09041 56.9937 3.94473 56.1947 2.95124C55.3999 1.95776 54.2754 1.28135 52.8507 0.943138H52.8634ZM46.0443 15.1944C46.6615 15.4311 47.1561 15.8496 47.5535 16.4753C47.9509 17.0968 48.1496 17.8239 48.1496 18.6398C48.1496 20.4239 47.5958 22.1191 46.4966 23.6876C45.4355 25.2053 43.4823 25.9747 40.6879 25.9747C40.4596 25.9747 40.151 25.9705 39.7663 25.9578L42.9623 14.8181C44.3997 14.835 45.4312 14.9618 46.04 15.1944H46.0443ZM43.7022 12.4422L46.4881 2.86246L47.2618 2.83287C48.2384 2.79905 48.9824 3.07384 49.5489 3.64034C50.1196 4.21107 50.3944 4.93821 50.3944 5.85983C50.3944 6.88713 50.0943 7.99899 49.4982 9.17003C48.9106 10.3199 48.1327 11.157 47.1772 11.6559C46.319 12.104 45.148 12.3703 43.6979 12.4422H43.7022Z" fill="white"/>
<path d="M78.6518 9.61828L72.7121 9.82966L70.8266 16.1668C69.2539 19.0585 67.7404 21.3033 66.3242 22.8337C65.1024 24.1316 64.4513 24.3049 64.1089 24.3218C64.1089 24.2119 64.1427 23.9118 64.371 23.1466L68.383 9.07715H66.544L59.4924 10.3031L59.0823 11.8716H59.6446C60.4436 11.8716 60.748 11.9392 60.8621 11.9773C61.0143 12.0322 61.1242 12.0999 61.175 12.1717C61.2299 12.2521 61.2553 12.3408 61.2553 12.4508C61.2553 12.7298 61.1623 13.3893 60.7142 14.9577L58.4693 22.9056C58.1226 24.0978 57.9578 25.0279 57.9578 25.7508C57.9578 26.6597 58.2579 27.4249 58.8498 28.0252C60.0293 29.2216 61.7626 29.1624 63.5171 28.2197C64.3837 27.7547 65.4068 26.8669 66.6455 25.5013C67.1866 24.8968 67.9518 23.8991 68.9368 22.5293L68.6916 23.3791C68.3492 24.5121 68.1759 25.4718 68.1759 26.2285C68.1759 27.0317 68.4633 27.6912 69.0256 28.1943C69.5752 28.6805 70.3235 28.9299 71.2535 28.9299C73.6252 28.9299 75.7982 27.1755 77.7133 23.7173L77.8993 23.3791L76.5465 22.4237L76.3013 22.7915C75.5445 23.916 74.94 24.6685 74.4792 25.0405C74.3608 25.1505 74.2847 25.1631 74.2847 25.1716L74.2129 25.1082C74.2129 25.0532 74.2594 24.7615 74.6737 23.3157L78.6561 9.62251L78.6518 9.61828Z" fill="white"/>
<path d="M93.7231 9.25861C93.2834 9.86316 92.7085 9.82934 91.4909 9.52918C90.2692 9.23325 89.2207 9.08105 88.3667 9.08105C86.3798 9.08105 84.8071 9.60105 83.691 10.6284C82.5623 11.6641 81.9915 12.9747 81.9915 14.5262C81.9915 15.4394 82.1818 16.2722 82.558 16.9951C83.0696 17.9505 84.0926 19.2526 85.6822 20.9775C86.7772 22.1781 87.4832 23.0659 87.7749 23.6113C88.0497 24.1271 88.1892 24.6682 88.1892 25.2178C88.1892 25.7378 87.9989 26.169 87.6058 26.5452C86.8617 27.2555 85.6695 27.34 84.3717 26.5664C83.7629 26.2028 83.2683 25.7039 82.9005 25.0867C82.5158 24.4399 82.093 23.3196 81.6406 21.7596L81.5519 21.4468H80.216L79.1125 28.9338H80.5753L80.7063 28.752C80.9473 28.4096 81.1037 28.2955 81.1714 28.2574C81.2559 28.2151 81.4208 28.1602 81.7421 28.1602C81.9704 28.1602 82.4228 28.2109 83.2979 28.4646C84.4562 28.7774 85.4497 28.9381 86.253 28.9381C87.4578 28.9381 88.6331 28.6379 89.7449 28.0418C90.8653 27.4415 91.7235 26.6298 92.2942 25.6278C92.8607 24.6301 93.1439 23.5606 93.1439 22.4445C93.1439 21.4129 92.8987 20.4279 92.4168 19.519C91.9433 18.6312 90.675 17.0797 88.5358 14.7756C87.9736 14.1753 87.61 13.706 87.4578 13.3763C87.3141 13.0677 87.2422 12.7252 87.2422 12.3659C87.2422 11.9854 87.3902 11.6683 87.6946 11.3978C88.0116 11.1103 88.4133 10.9708 88.9163 10.9708C89.7957 10.9708 90.6074 11.3766 91.3937 12.2095C92.1843 13.0423 92.6366 14.2176 92.7381 15.6972L92.7634 16.1031H94.2811L95.2789 9.09374H93.8457L93.7146 9.2713L93.7231 9.25861Z" fill="white"/>
<path d="M105.856 20.3099C107.34 19.8999 108.697 19.2996 109.894 18.5175C111.107 17.7227 112.13 16.6658 112.929 15.3679C113.525 14.3871 113.83 13.364 113.83 12.3198C113.83 11.3897 113.496 10.6076 112.836 9.99463C112.185 9.39008 111.238 9.08569 110.016 9.08569C107.746 9.08569 105.463 9.76634 103.223 11.1149C100.991 12.4593 99.2023 14.2687 97.9044 16.4967C96.6065 18.7246 95.947 20.9948 95.947 23.2354C95.947 24.7236 96.4078 26.051 97.3125 27.184C98.2426 28.3466 99.8998 28.9385 102.242 28.9385C104.056 28.9385 105.738 28.5284 107.239 27.7125C108.727 26.9092 110.266 25.5479 111.817 23.6709L112.084 23.3496L110.883 22.2716L110.591 22.5379C109.395 23.6286 108.338 24.4023 107.446 24.8335C106.575 25.252 105.7 25.4676 104.842 25.4676C103.984 25.4676 103.333 25.2182 102.838 24.7066C102.339 24.1909 102.094 23.506 102.094 22.6224C102.094 22.1659 102.136 21.5867 102.225 20.8976C103.717 20.7623 104.935 20.5678 105.852 20.3184L105.856 20.3099ZM107.805 11.2587C108.004 11.2587 108.156 11.3179 108.279 11.4447C108.406 11.5757 108.465 11.7618 108.465 12.0196C108.465 12.8271 108.249 13.7149 107.827 14.6534C107.4 15.6046 106.888 16.3994 106.305 17.0167C105.73 17.6297 105.138 18.0778 104.55 18.3526C104.077 18.5724 103.438 18.7584 102.639 18.9064C103.548 16.0654 104.669 13.8925 105.979 12.4424C106.677 11.6645 107.307 11.2544 107.805 11.2544V11.2587Z" fill="white"/>
<path d="M122.834 10.9627C123.714 10.9627 124.525 11.3686 125.312 12.2014C126.102 13.0343 126.555 14.2095 126.656 15.6892L126.682 16.095H128.199L129.197 9.08569H127.764L127.633 9.26325C127.193 9.8678 126.618 9.83398 125.401 9.53382C124.179 9.23789 123.13 9.08569 122.276 9.08569C120.289 9.08569 118.717 9.60569 117.601 10.633C116.472 11.6688 115.901 12.9793 115.901 14.5308C115.901 15.444 116.091 16.2768 116.468 16.9997C116.979 17.9552 118.002 19.2573 119.592 20.9821C120.687 22.1828 121.393 23.0706 121.685 23.6159C121.959 24.1317 122.099 24.6728 122.099 25.2224C122.099 25.7424 121.909 26.1736 121.515 26.5499C120.771 27.2601 119.579 27.3447 118.281 26.571C117.673 26.2074 117.178 25.7086 116.81 25.0914C116.425 24.4445 116.003 23.3242 115.55 21.7642L115.462 21.4514H114.126L113.022 28.9385H114.485L114.616 28.7567C114.857 28.4142 115.013 28.3001 115.081 28.2621C115.166 28.2198 115.33 28.1648 115.652 28.1648C115.88 28.1648 116.332 28.2155 117.208 28.4692C118.366 28.782 119.359 28.9427 120.163 28.9427C121.367 28.9427 122.543 28.6425 123.655 28.0464C124.775 27.4461 125.633 26.6344 126.204 25.6325C126.77 24.6348 127.054 23.5652 127.054 22.4491C127.054 21.4176 126.808 20.4325 126.326 19.5236C125.853 18.6358 124.585 17.0843 122.446 14.7803C121.883 14.1799 121.52 13.7107 121.367 13.3809C121.224 13.0723 121.152 12.7299 121.152 12.3705C121.152 11.99 121.3 11.673 121.604 11.4024C121.921 11.1149 122.323 10.9754 122.826 10.9754L122.834 10.9627Z" fill="white"/>
</svg>
