<svg width="150" height="150" viewBox="0 0 150 150" fill="none" xmlns="http://www.w3.org/2000/svg">
<g clip-path="url(#clip0_99_11592)">
<path d="M75 150C116.421 150 150 116.421 150 75C150 33.5786 116.421 0 75 0C33.5786 0 0 33.5786 0 75C0 116.421 33.5786 150 75 150Z" fill="#052B89"/>
<path d="M75.035 124.977H74.9999C50.7999 124.959 37.4955 104.674 33.9921 98.4642L33.8607 98.2365C33.4403 97.5271 33.4315 96.6162 33.8695 95.9155C36.7598 91.3523 42.0237 85.0373 50.686 80.8945C55.8361 78.4333 61.3715 77.102 67.1522 76.9531L67.2661 81.3324C62.1072 81.4638 57.1674 82.6462 52.5866 84.8446C45.5359 88.2254 40.999 93.2178 38.3013 97.168C42.1376 103.658 54.1632 120.589 74.9999 120.606H75.0262C94.7769 120.606 106.934 105.243 111.663 97.7986C108.843 93.6733 104.114 88.4356 96.7213 84.8446C91.4924 82.3046 85.6416 80.947 79.7471 80.9996L79.7296 76.6203C86.281 76.6028 92.8149 78.0654 98.6394 80.9032C107.661 85.2913 113.126 91.8603 116.122 96.5987C116.577 97.3256 116.577 98.2453 116.104 98.9635C116.052 99.0423 115.981 99.1562 115.885 99.3226C111.155 107.039 97.6935 124.985 75.035 124.985V124.977Z" fill="white"/>
<path d="M75 68.4661C63.1496 68.4661 53.5151 58.8316 53.5151 46.9812C53.5151 35.1308 63.1496 25.4963 75 25.4963C86.8504 25.4963 96.4849 35.1308 96.4849 46.9812C96.4849 58.8316 86.8504 68.4661 75 68.4661ZM75 29.8756C65.567 29.8756 57.8944 37.5482 57.8944 46.9812C57.8944 56.4142 65.567 64.0868 75 64.0868C84.433 64.0868 92.1056 56.4142 92.1056 46.9812C92.1056 37.5482 84.433 29.8756 75 29.8756Z" fill="white"/>
</g>
<defs>
<clipPath id="clip0_99_11592">
<rect width="150" height="150" fill="white"/>
</clipPath>
</defs>
</svg>
